<svg xmlns="http://www.w3.org/2000/svg" viewBox="0 0 32 32">
  <circle cx="16" cy="16" r="15" fill="#dc2626"/>
  <path d="M16 1C8.268 1 2 7.268 2 15c0 .337.011.671.031 1.003C2.744 9.15 8.786 4 16 4s13.256 5.15 13.969 12.003C29.989 15.671 30 15.337 30 15c0-7.732-6.268-14-14-14z" fill="#ef4444"/>
  <path d="M8 16 Q16 10 24 16" stroke="white" stroke-width="1.2" fill="none" stroke-linecap="round"/>
  <path d="M8 18 Q16 12 24 18" stroke="rgba(255,255,255,0.6)" stroke-width="0.8" fill="none" stroke-linecap="round"/>
  <path d="M8 14 Q16 8 24 14" stroke="rgba(255,255,255,0.6)" stroke-width="0.8" fill="none" stroke-linecap="round"/>
  <line x1="16" y1="6" x2="16" y2="26" stroke="white" stroke-width="0.8" stroke-opacity="0.5"/>
</svg>
